<?xml version="1.0" standalone="no"?>
<!DOCTYPE svg PUBLIC "-//W3C//DTD SVG 20010904//EN"
 "http://www.w3.org/TR/2001/REC-SVG-20010904/DTD/svg10.dtd">
<svg version="1.0" xmlns="http://www.w3.org/2000/svg"
 width="594.000000pt" height="1280.000000pt" viewBox="0 0 594.000000 1280.000000"
 preserveAspectRatio="xMidYMid meet">
<metadata>
Created by potrace 1.15, written by Peter Selinger 2001-2017
</metadata>
<g transform="translate(0.000000,1280.000000) scale(0.100000,-0.100000)"
fill="#000000" stroke="none">
<path d="M3365 12231 l-70 -6 -12 -115 c-43 -402 -199 -1846 -283 -2625 -55
-506 -176 -1629 -270 -2495 -208 -1926 -207 -1920 -213 -1926 -3 -3 -22 -1
-44 5 -82 23 -250 3 -335 -40 -96 -49 -132 -195 -70 -278 29 -39 236 -153 289
-159 41 -4 43 -6 43 -37 0 -38 -27 -120 -63 -190 -58 -116 -180 -226 -292
-266 -67 -23 -140 -25 -149 -4 -5 15 21 35 46 35 19 0 61 46 84 90 30 60 22
216 -16 277 -29 48 -211 153 -265 153 -73 0 -115 -41 -180 -172 -32 -66 -66
-155 -81 -213 -22 -86 -25 -116 -22 -218 l4 -117 -70 0 c-94 0 -219 -31 -324
-80 -420 -197 -765 -675 -879 -1219 -34 -163 -39 -435 -10 -570 48 -224 115
-339 296 -513 202 -193 298 -240 491 -242 63 -1 140 3 171 7 l56 8 5 -88 c4
-62 13 -109 32 -159 25 -64 35 -78 124 -158 l96 -88 76 7 c41 4 80 11 85 15 7
6 44 -22 95 -71 109 -103 124 -111 197 -103 228 24 433 153 560 352 l34 53 37
-29 c75 -59 99 -67 207 -66 218 3 399 92 380 189 -3 17 -9 50 -13 75 -4 25
-11 50 -15 57 -14 22 -180 145 -216 160 -20 8 -37 16 -39 18 -2 2 11 32 28 66
59 117 157 232 252 293 l26 17 -24 -58 c-28 -69 -32 -166 -8 -201 18 -25 161
-136 197 -153 18 -8 34 -9 56 -1 16 6 39 8 50 5 34 -9 81 52 127 163 71 168
88 287 60 405 l-13 55 102 17 c57 9 127 26 157 37 282 105 569 461 707 876 63
187 82 295 88 489 6 198 -6 285 -63 442 -73 201 -137 276 -316 371 -128 67
-220 102 -270 102 l-33 0 -1 108 c-1 85 -7 126 -28 197 -15 50 -34 100 -42
113 -21 31 -205 122 -249 122 -26 0 -35 4 -35 17 0 16 -13 64 -31 111 -6 16
-43 39 -120 77 -93 46 -121 55 -165 55 -49 0 -54 2 -54 22 0 30 423 3533 436
3607 l5 33 120 -4 c93 -3 119 -1 119 9 0 16 -8 17 102 -6 69 -15 187 -24 463
-35 204 -9 403 -19 443 -22 69 -6 74 -5 79 15 3 13 13 21 27 21 20 0 23 16 81
421 l61 421 -24 11 c-15 7 -22 18 -20 31 3 18 -4 22 -47 28 -79 12 -416 47
-460 49 -22 0 -72 5 -112 11 -40 5 -149 17 -243 27 -94 10 -173 21 -176 24 -3
2 -2 28 2 56 6 49 8 52 33 47 30 -6 366 -43 459 -50 34 -3 117 -12 185 -21 67
-8 179 -21 249 -28 l127 -13 10 23 c6 13 19 23 29 23 17 0 24 39 77 408 31
224 60 421 62 438 4 25 1 32 -16 37 -13 3 -21 13 -21 26 0 12 -3 21 -6 21 -4
0 -212 33 -463 74 -251 41 -494 77 -541 81 -47 4 -87 11 -90 15 -3 5 -59 18
-124 29 -65 11 -120 22 -121 23 -1 2 25 227 59 502 56 465 59 499 43 511 -9 7
-17 19 -17 28 0 9 -10 19 -22 22 -197 46 -529 115 -548 113 -14 -1 -56 -4 -95
-7z m118 -7478 c-13 -62 -7 -138 13 -172 10 -17 21 -31 24 -31 3 0 11 -4 18
-9 20 -12 -5 -57 -64 -115 -57 -57 -129 -95 -195 -103 l-49 -6 -20 44 c-12 27
-20 66 -20 100 0 71 32 196 66 259 23 41 30 48 45 40 27 -15 79 -11 129 10 61
26 62 25 53 -17z m-634 -757 c65 -47 271 -164 303 -171 l26 -7 -56 -109 c-55
-105 -57 -113 -57 -185 0 -72 2 -77 31 -103 17 -15 69 -51 116 -79 96 -58 125
-63 224 -37 77 20 132 54 190 118 89 97 114 181 87 280 l-11 39 51 24 c32 14
71 24 99 24 42 0 50 -4 73 -34 136 -179 92 -569 -96 -847 -51 -76 -158 -190
-214 -229 l-40 -28 -27 57 c-24 51 -36 62 -125 120 -142 94 -180 108 -248 94
-105 -22 -189 -106 -215 -213 -16 -67 -7 -110 49 -222 l47 -96 -41 -12 c-178
-53 -406 -245 -547 -462 l-50 -77 -111 85 c-100 75 -191 124 -232 124 -8 0
-15 1 -15 3 0 2 18 39 41 83 l41 79 -7 85 c-4 47 -11 93 -16 102 -5 10 -56 53
-112 95 -101 77 -103 78 -162 78 -108 0 -241 -84 -330 -210 -77 -107 -99 -199
-70 -291 6 -18 -1 -23 -62 -44 -141 -47 -308 -34 -352 28 -11 16 -32 64 -47
108 -79 235 27 593 258 864 71 83 192 186 258 220 l39 20 12 -38 c19 -59 53
-97 157 -171 163 -115 195 -124 324 -91 100 25 153 60 186 120 21 40 23 53 18
123 -7 83 -36 173 -86 266 -17 30 -27 58 -23 61 5 4 37 15 73 25 155 43 299
128 421 247 64 62 169 193 169 209 0 15 10 10 59 -25z m-815 -2491 c40 -40 27
-183 -25 -288 -24 -46 -34 -57 -47 -52 -63 24 -140 1 -214 -64 -36 -32 -55
-29 -44 7 9 29 -11 93 -38 121 l-26 27 49 60 c70 87 161 153 260 189 48 18 67
18 85 0z"/>
</g>
</svg>
